<?xml version="1.0" encoding="utf-8"?>
<!-- Generator: Adobe Illustrator 19.2.0, SVG Export Plug-In . SVG Version: 6.00 Build 0)  -->
<svg version="1.1"
	 id="svg2" xmlns:cc="http://creativecommons.org/ns#" xmlns:dc="http://purl.org/dc/elements/1.1/" xmlns:rdf="http://www.w3.org/1999/02/22-rdf-syntax-ns#"
	 xmlns="http://www.w3.org/2000/svg" xmlns:xlink="http://www.w3.org/1999/xlink" x="0px" y="0px" viewBox="0 0 200 200"
	 style="enable-background:new 0 0 200 200;" xml:space="preserve">
<style type="text/css">
	.st0{fill:#D1D2D3;}
</style>
<path class="st0" d="M149.8,148.8c2.5,0.8,4.8,1.4,6.9,2.1c8.7,2.5,11.2,13.7,4.4,19.6c-16.4,14.2-37.8,22.8-61.2,22.8
	c-23.3,0-44.6-8.5-60.9-22.5c-6.9-5.9-4.3-17.1,4.4-19.6c2.3-0.7,4.8-1.4,7.6-2.3c15.7-4.9,23.2-11,24.6-17.2c0,0,0-0.1,0-0.1
	c0.9-4-0.7-8.3-3.9-10.9c-6.6-5.5-9.3-15-11.1-22c-0.2-0.8-0.4-1.6-0.6-2.5c-3-0.5-6.4-4.3-8.1-9.7c-2.1-6.4-1-12.5,2.4-13.6
	c0.3-0.1,0.7-0.1,1-0.1c-0.8-4.6-1.7-11.4-1.8-17.4c0-1.3-0.1-2.7-0.1-4.2c0-0.8,0-1.5,0-2.3c0-0.4,0-0.8,0.1-1.2s0.1-0.8,0.1-1.2
	c0.2-3.3,0.7-6.7,1.8-10C57.2,30.4,60.7,25,67.2,22c1.5-0.7,2.8-1.6,3.8-2.8c5.6-6.6,12.3-9.9,18.6-11.4c1.7-0.4,3.4-0.7,5-0.8
	c0.8-0.1,1.6-0.1,2.4-0.2c0.4,0,0.8,0,1.2,0h1.1c2.9,0.1,5.5,0.5,7.4,0.9c12.5,3.1,22.4,9.5,29.2,17.4c3.4,4,6,8.3,7.7,12.7
	c0.9,2.2,1.5,4.5,1.9,6.7c0.2,1.1,0.3,2.3,0.4,3.4c0.1,1.1,0.1,2.2,0,3.4c-0.4,6.8-1.1,11.5-1.8,15.1c-0.6,2.8,0,5.6,1.3,8.1
	c1.2,2.6,1.3,6.7,0.1,11c-1.5,5.1-4.6,8.9-7.5,9.7c-0.6,2-1,3.4-1,3.4c-1,7.3-2.7,15-8.9,20.8c-2.6,2.5-3.8,6.1-3.3,9.7
	c0.1,0.9,0.3,1.7,0.4,2.3C126.6,137.8,134.1,143.9,149.8,148.8L149.8,148.8z"/>
</svg>
