<?xml version="1.0" encoding="utf-8"?>
<!-- Generator: Adobe Illustrator 19.2.0, SVG Export Plug-In . SVG Version: 6.00 Build 0)  -->
<svg version="1.1" id="Layer_1" xmlns:sketch="http://www.bohemiancoding.com/sketch/ns"
	 xmlns="http://www.w3.org/2000/svg" xmlns:xlink="http://www.w3.org/1999/xlink" x="0px" y="0px" viewBox="0 0 16 16"
	 style="enable-background:new 0 0 16 16;" xml:space="preserve">
<style type="text/css">
	.st0{fill:#FFFFFF;}
</style>
<path class="st0" d="M14,4h-2c0-1.1-0.9-2-2-2H6C4.9,2,4,2.9,4,4H2C0.9,4,0,4.9,0,6v7c0,1.1,0.9,2,2,2h12c1.1,0,2-0.9,2-2V6
	C16,4.9,15.1,4,14,4z M8,13.5c-2.2,0-4-1.8-4-4s1.8-4,4-4s4,1.8,4,4S10.2,13.5,8,13.5z"/>
<circle id="Oval-1" sketch:type="MSShapeGroup" class="st0" cx="8" cy="9.5" r="3">
</circle>
</svg>
