<?xml version="1.0" encoding="utf-8"?>
<!-- Generator: Adobe Illustrator 19.2.0, SVG Export Plug-In . SVG Version: 6.00 Build 0)  -->
<svg version="1.1"
	 id="svg2" xmlns:cc="http://creativecommons.org/ns#" xmlns:dc="http://purl.org/dc/elements/1.1/" xmlns:rdf="http://www.w3.org/1999/02/22-rdf-syntax-ns#"
	 xmlns="http://www.w3.org/2000/svg" xmlns:xlink="http://www.w3.org/1999/xlink" x="0px" y="0px" viewBox="0 0 200 200"
	 style="enable-background:new 0 0 200 200;" xml:space="preserve">
<style type="text/css">
	.st0{fill:#FFFFFF;}
</style>
<g id="icon-mail">
	<path class="st0" d="M120.2,100c0,0-6.8,9-20.2,9s-20.2-9-20.2-9L12.2,42.6c3.4-5.6,10.1-10.1,18-10.1h139.5
		c7.9,0,14.6,4.5,18,10.1L120.2,100z M79.8,119.1c0,0,6.8,9,20.2,9s20.2-9,20.2-9L190,58.4v90c0,10.1-9,19.1-20.2,19.1H30.2
		c-11.2,0-20.2-9-20.2-19.1v-90L79.8,119.1z"/>
</g>
</svg>
