<?xml version="1.0" encoding="UTF-8" standalone="no"?>
<svg width="16px" height="16px" viewBox="0 0 16 16" version="1.1" xmlns="http://www.w3.org/2000/svg" xmlns:xlink="http://www.w3.org/1999/xlink" xmlns:sketch="http://www.bohemiancoding.com/sketch/ns">
    <!-- Generator: Sketch 3.5.1 (25234) - http://www.bohemiancoding.com/sketch -->
    <title>Artboard 1</title>
    <desc>Created with Sketch.</desc>
    <defs></defs>
    <g id="Page-1" stroke="none" stroke-width="1" fill="none" fill-rule="evenodd" sketch:type="MSPage">
        <g id="Artboard-1" sketch:type="MSArtboardGroup" fill="#FFFFFF">
            <path d="M16,14.8629442 L14.8629442,16 L10.4771574,11.6142132 C9.4213198,12.4263959 8.04060914,12.9949239 6.49746193,12.9949239 C2.92385787,12.9949239 0,10.071066 0,6.49746193 C0,2.92385787 2.92385787,0 6.49746193,0 C10.071066,0 12.9949239,2.92385787 12.9949239,6.49746193 C12.9949239,7.95939086 12.5076142,9.34010152 11.6142132,10.4771574 L16,14.8629442 L16,14.8629442 Z M6.49746193,1.62436548 C3.81725888,1.62436548 1.62436548,3.81725888 1.62436548,6.49746193 C1.62436548,9.17766497 3.81725888,11.3705584 6.49746193,11.3705584 C9.17766497,11.3705584 11.3705584,9.17766497 11.3705584,6.49746193 C11.3705584,3.81725888 9.17766497,1.62436548 6.49746193,1.62436548 L6.49746193,1.62436548 Z" id="Shape" sketch:type="MSShapeGroup"></path>
        </g>
    </g>
</svg>