<?xml version="1.0" encoding="UTF-8" standalone="no"?>
<svg width="14px" height="12px" viewBox="0 0 14 12" version="1.1" xmlns="http://www.w3.org/2000/svg" xmlns:xlink="http://www.w3.org/1999/xlink" xmlns:sketch="http://www.bohemiancoding.com/sketch/ns">
    <!-- Generator: Sketch 3.5.1 (25234) - http://www.bohemiancoding.com/sketch -->
    <title>Shape</title>
    <desc>Created with Sketch.</desc>
    <defs></defs>
    <g id="Page-1" stroke="none" stroke-width="1" fill="none" fill-rule="evenodd" sketch:type="MSPage">
        <g id="activity" sketch:type="MSArtboardGroup" transform="translate(-1.000000, -2.000000)" fill="#FFFFFF">
            <path d="M3,14 C1.9,14 1,13.1 1,12 L1,4 C1,2.9 1.9,2 3,2 L5,2 L11,2 L13,2 C14.1,2 15,2.9 15,4 L15,12 C15,13.1 14.1,14 13,14 L3,14 Z M4,4 C3.4,4 3,4.4 3,5 C3,5.6 3.4,6 4,6 C4.6,6 5,5.6 5,5 C5,4.4 4.6,4 4,4 L4,4 Z M4,7 C3.4,7 3,7.4 3,8 C3,8.6 3.4,9 4,9 C4.6,9 5,8.6 5,8 C5,7.4 4.6,7 4,7 L4,7 Z M4,10 C3.4,10 3,10.4 3,11 C3,11.6 3.4,12 4,12 C4.6,12 5,11.6 5,11 C5,10.4 4.6,10 4,10 L4,10 Z M13,4 L6,4 L6,6 L13,6 L13,4 L13,4 Z M13,7 L6,7 L6,9 L13,9 L13,7 L13,7 Z M13,10 L6,10 L6,12 L13,12 L13,10 L13,10 Z" id="Shape" sketch:type="MSShapeGroup"></path>
        </g>
    </g>
</svg>