<?xml version="1.0" encoding="UTF-8" standalone="no"?>
<svg width="16px" height="16px" viewBox="0 0 16 16" version="1.1" xmlns="http://www.w3.org/2000/svg" xmlns:xlink="http://www.w3.org/1999/xlink" xmlns:sketch="http://www.bohemiancoding.com/sketch/ns">
    <!-- Generator: Sketch 3.5.1 (25234) - http://www.bohemiancoding.com/sketch -->
    <title>Artboard 1</title>
    <desc>Created with Sketch.</desc>
    <defs></defs>
    <g id="Page-1" stroke="none" stroke-width="1" fill="none" fill-rule="evenodd" sketch:type="MSPage">
        <g id="Artboard-1" sketch:type="MSArtboardGroup" fill="#FFFFFF">
            <path d="M15,11 C15.4,11 14.6,11 14.7,11 C13.9,11 13.3,9.2 13,7 C12.6,4.7 13,3 11,3 L5,3 C3,3 3.4,4.7 3,7 C2.7,9.2 2.2,11 1.4,11 C1.6,11 0.6,11 1,11 C0.4,11 0,11.4 0,12 C0,12.6 0.4,13 1,13 L15,13 C15.6,13 16,12.6 16,12 C16,11.4 15.6,11 15,11 L15,11 Z" id="Shape" sketch:type="MSShapeGroup"></path>
        </g>
    </g>
</svg>