<?xml version="1.0" encoding="utf-8"?>
<?xml-stylesheet type="text/css" href="stylesheet.css" ?>
<!DOCTYPE svg PUBLIC "-//W3C//DTD SVG 1.1//EN" "http://www.w3.org/Graphics/SVG/1.1/DTD/svg11.dtd">

<svg version="1.1"
     xmlns="http://www.w3.org/2000/svg"
     xmlns:xlink="http://www.w3.org/1999/xlink"
     x="0"
     y="0"
     width="16"
     height="16"
     viewBox="0 0 16 16">

  <use xlink:href="defs.svg"/>

  <g id="icon-placeholder">
  	<circle class="icon-placeholder-background" cx="8" cy="8" r="8"/>
  	<circle class="icon-placeholder-border" cx="8" cy="8" r="7.5"/>
  	<path fill="#fff" d="M4,4v8h8V4H4z M11,5L11,5L11,5L11,5z M11,9.9L9.1,8L11,6.1V9.9z M8,6.9L6.1,5H10L8,6.9z M5,6.1L6.9,8L5,9.9 V6.1z M8,9.1L9.9,11H6.1L8,9.1z M11,11L11,11L11,11L11,11z"/>
  </g>

</svg>
