<?xml version="1.0" encoding="utf-8"?>
<?xml-stylesheet type="text/css" href="stylesheet.css" ?>
<!DOCTYPE svg PUBLIC "-//W3C//DTD SVG 1.1//EN" "http://www.w3.org/Graphics/SVG/1.1/DTD/svg11.dtd">

<svg version="1.1"
     xmlns="http://www.w3.org/2000/svg"
     xmlns:xlink="http://www.w3.org/1999/xlink"
     x="0"
     y="0"
     width="16"
     height="16"
     viewBox="0 0 16 16">

  <use xlink:href="defs.svg"/>

  <g id="icon-characterEncoding">
  	<path d="M13,15H3c-1.1,0-2-0.9-2-2V3c0-1.1,0.9-2,2-2h10c1.1,0,2,0.9,2,2v10C15,14.1,14.1,15,13,15z M13,5c0-1.7-1.3-3-3-3H6
  		C4.3,2,3,3.3,3,5v4c0,1.7,1.3,3,3,3h4c1.7,0,3-0.3,3-2V5z M10,8.2c0.3,0,0.6,0,0.9-0.1c0.3-0.1,0.5-0.2,0.8-0.3v0.8
  		c-0.3,0.1-0.6,0.2-0.8,0.3S10.4,9,10,9C9,9,8.3,8.6,7.9,7.8C7.6,8.2,7.3,8.5,7,8.7C6.6,8.9,6.2,9,5.8,9c-0.6,0-1-0.2-1.3-0.5
  		C4.1,8.3,4,7.8,4,7.3c0-0.6,0.2-1,0.6-1.3s1.1-0.5,1.9-0.5h0.9V5.1c0-0.5-0.1-0.8-0.3-1C7,3.8,6.7,3.7,6.3,3.7
  		c-0.5,0-1,0.1-1.6,0.4L4.5,3.5C4.7,3.4,5,3.2,5.4,3.1C5.7,3.1,6,3,6.4,3s0.8,0.1,1.1,0.2C7.7,3.4,8,3.6,8.1,4
  		c0.2-0.3,0.4-0.6,0.7-0.7C9.1,3.1,9.4,3,9.8,3c0.7,0,1.2,0.2,1.6,0.7C11.8,4.2,12,4.8,12,5.6v0.6H8.4C8.4,7.6,9,8.2,10,8.2z
  		 M7.5,6.1H6.7C6,6.1,5.6,6.2,5.3,6.4C5,6.6,4.9,6.9,4.9,7.3C4.9,7.6,5,7.9,5.2,8c0.2,0.2,0.4,0.2,0.7,0.2c0.5,0,0.9-0.1,1.2-0.4
  		c0.3-0.3,0.4-0.7,0.4-1.3V6.1z M11.1,5.5c0-0.6-0.1-1-0.3-1.3s-0.5-0.4-0.9-0.4s-0.7,0.1-1,0.4S8.5,4.9,8.4,5.5H11.1z"/>
  </g>

</svg>
