<?xml version="1.0" encoding="utf-8"?>
<?xml-stylesheet type="text/css" href="stylesheet.css" ?>
<!DOCTYPE svg PUBLIC "-//W3C//DTD SVG 1.1//EN" "http://www.w3.org/Graphics/SVG/1.1/DTD/svg11.dtd">

<svg version="1.1"
     xmlns="http://www.w3.org/2000/svg"
     xmlns:xlink="http://www.w3.org/1999/xlink"
     x="0"
     y="0"
     width="16"
     height="16"
     viewBox="0 0 16 16">

  <use xlink:href="defs.svg"/>

  <g id="icon-edit-cut">
  	<path d="M13.7,15c-0.8,0-1.5-0.2-2.3-1.3s-1.7-2.5-1.7-2.5S9,10.3,8.6,9.6C8.1,8.9,7.5,9.1,7.5,9.1S4.6,4.4,4.1,3.7
  		C3.5,2.7,4.7,1,4.7,1l4.4,7c0,0,1.4,1.9,1.9,2.3c0.5,0.4,1.4-0.4,2.8,0.9C15.7,13,15.1,15,13.7,15z M13.4,12.1
  		c-0.9-1-1.7-0.9-1.9-0.6c-0.2,0.3,0,1.2,0.4,1.7s0.8,0.7,1.4,0.7C13.9,14,14.4,13.2,13.4,12.1z M9.6,7.4L8.4,5.6L11.3,1
  		c0,0,1.2,1.7,0.6,2.7C11.6,4.1,10.5,6,9.6,7.4z M5,10.3C5.3,10,6,9.2,6.4,8.6l0.8,1.2c-0.4,0.6-0.9,1.4-0.9,1.4s-0.9,1.4-1.7,2.5
  		C3.9,14.8,3.2,15,2.3,15c-1.4,0-2.1-2-0.1-3.8C3.6,10,4.5,10.7,5,10.3z M2.6,12.1c-0.9,1-0.4,1.8,0.2,1.8s1-0.2,1.4-0.7
  		c0.4-0.5,0.6-1.5,0.4-1.7C4.3,11.2,3.5,11.1,2.6,12.1z"/>
  </g>

</svg>
