<?xml version="1.0" encoding="utf-8"?>
<?xml-stylesheet type="text/css" href="stylesheet.css" ?>
<!DOCTYPE svg PUBLIC "-//W3C//DTD SVG 1.1//EN" "http://www.w3.org/Graphics/SVG/1.1/DTD/svg11.dtd">

<svg version="1.1"
     xmlns="http://www.w3.org/2000/svg"
     xmlns:xlink="http://www.w3.org/1999/xlink"
     x="0"
     y="0"
     width="16"
     height="16"
     viewBox="0 0 16 16">

  <use xlink:href="defs.svg"/>

  <g id="icon-sidebars">
  	<path d="M14.5,15h-13C0.7,15,0,14.3,0,13.5v-11C0,1.7,0.7,1,1.5,1h13C15.3,1,16,1.7,16,2.5v11C16,14.3,15.3,15,14.5,15z M2,6v6
  		c0,0.6,0.4,1,1,1h7V5H3C2.4,5,2,5.4,2,6z M8.5,2C8.2,2,8,2.2,8,2.5S8.2,3,8.5,3S9,2.8,9,2.5S8.8,2,8.5,2z M10.4,2
  		c-0.3,0-0.5,0.2-0.5,0.5S10.2,3,10.4,3c0.3,0,0.5-0.2,0.5-0.5S10.7,2,10.4,2z M13.5,2h-1C12.2,2,12,2.2,12,2.5S12.2,3,12.5,3h1
  		C13.8,3,14,2.8,14,2.5S13.8,2,13.5,2z M14,6c0-0.6-0.4-1-1-1h-1v8h1c0.6,0,1-0.4,1-1V6z"/>
  </g>

</svg>
