<?xml version="1.0" encoding="utf-8"?>
<?xml-stylesheet type="text/css" href="stylesheet.css" ?>
<!DOCTYPE svg PUBLIC "-//W3C//DTD SVG 1.1//EN" "http://www.w3.org/Graphics/SVG/1.1/DTD/svg11.dtd">

<svg version="1.1"
     xmlns="http://www.w3.org/2000/svg"
     xmlns:xlink="http://www.w3.org/1999/xlink"
     x="0"
     y="0"
     width="16"
     height="16"
     viewBox="0 0 16 16">

  <use xlink:href="defs.svg"/>

  <g id="icon-privateBrowsing">
  	<path d="M15.7,6.5c-0.1,1.1,0.2,2.5-1.3,4.4C12.9,13,11.3,13,11,13c-1.8-0.1-2-1.5-3-1.5c-0.9,0-1.6,1.4-3,1.5c-0.3,0-1.9,0-3.4-2
  		S0.4,7.7,0.3,6.5C0.2,5.4,0,4.2,0,4.2S0.7,4.9,1.6,5s1.1-0.3,3-0.9C6.7,3.5,8,6,8,6s1.4-2.4,3.4-1.9s2,0.9,2.9,0.9
  		C15.2,4.9,16,4.2,16,4.2S15.8,5.4,15.7,6.5z M4.9,7C3.8,6.8,3.3,7.2,2.8,7.4C2.4,7.5,2,7.6,2,7.6s0,0.6,1.2,1.2
  		c1.1,0.6,3.5,0.3,3.5,0.3S6.9,7.4,4.9,7z M13.2,7.4c-0.5-0.2-1-0.6-2.1-0.4c-2,0.4-1.8,2.1-1.8,2.1s2.4,0.3,3.5-0.3
  		C14,8.2,14,7.6,14,7.6S13.7,7.5,13.2,7.4z"/>
  </g>

</svg>
