<?xml version="1.0" encoding="utf-8"?>
<?xml-stylesheet type="text/css" href="stylesheet.css" ?>
<!DOCTYPE svg PUBLIC "-//W3C//DTD SVG 1.1//EN" "http://www.w3.org/Graphics/SVG/1.1/DTD/svg11.dtd">

<svg version="1.1"
     xmlns="http://www.w3.org/2000/svg"
     xmlns:xlink="http://www.w3.org/1999/xlink"
     x="0"
     y="0"
     width="16"
     height="16"
     viewBox="0 0 16 16">

  <use xlink:href="defs.svg"/>

  <g id="icon-new-tab">
  	<path d="M15,11c0.4,0-0.4,0-0.3,0c-0.8,0-1.4-1.8-1.7-4c-0.4-2.3,0-4-2-4C8.8,3,7.2,3,5,3C3,3,3.4,4.7,3,7c-0.3,2.2-0.8,4-1.6,4
  		c0.2,0-0.8,0-0.4,0c-0.6,0-1,0.4-1,1s0.4,1,1,1h14c0.6,0,1-0.4,1-1S15.6,11,15,11z"/>
  </g>

</svg>
