<?xml version="1.0" encoding="utf-8"?>
<?xml-stylesheet type="text/css" href="stylesheet.css" ?>
<!DOCTYPE svg PUBLIC "-//W3C//DTD SVG 1.1//EN" "http://www.w3.org/Graphics/SVG/1.1/DTD/svg11.dtd">

<svg version="1.1"
     xmlns="http://www.w3.org/2000/svg"
     xmlns:xlink="http://www.w3.org/1999/xlink"
     x="0"
     y="0"
     width="16"
     height="16"
     viewBox="0 0 16 16">

  <use xlink:href="defs.svg"/>

  <g id="icon-settings">
  	<path d="M11.4,13.7l-0.6-1.5c0.3-0.2,0.5-0.4,0.8-0.6c0.2-0.2,0.4-0.5,0.6-0.7l1.5,0.6c0.3,0.1,0.5,0,0.7-0.3l0.4-0.9
  		c0.1-0.3,0-0.5-0.3-0.7L12.9,9c0.1-0.6,0.1-1.3,0-1.9l1.5-0.6c0.3-0.1,0.4-0.4,0.3-0.7l-0.4-0.9c-0.1-0.3-0.4-0.4-0.7-0.3l-1.5,0.6
  		C12,5,11.8,4.7,11.5,4.5c-0.2-0.2-0.5-0.4-0.7-0.6l0.6-1.5c0.1-0.3,0-0.5-0.3-0.7l-0.9-0.4c-0.3-0.1-0.5,0-0.7,0.3L9,3.1
  		C8.4,3,7.7,3,7.1,3.1L6.5,1.6C6.4,1.3,6.1,1.2,5.8,1.3L4.9,1.7C4.7,1.8,4.5,2.1,4.6,2.4l0.6,1.5C5,4,4.7,4.2,4.5,4.5
  		C4.3,4.7,4.1,4.9,3.9,5.2L2.4,4.5c-0.3-0.1-0.5,0-0.7,0.3L1.4,5.7C1.3,6,1.4,6.3,1.6,6.4L3.1,7C3,7.6,3,8.3,3.1,8.9L1.6,9.5
  		c-0.3,0.1-0.4,0.4-0.3,0.7l0.4,0.9c0.1,0.3,0.4,0.4,0.7,0.3l1.5-0.6C4,11,4.2,11.3,4.5,11.5c0.2,0.2,0.5,0.4,0.7,0.6l-0.6,1.5
  		c-0.1,0.3,0,0.5,0.3,0.7l0.9,0.4c0.3,0.1,0.5,0,0.7-0.3L7,12.9c0.6,0.1,1.3,0.1,1.9,0l0.6,1.5c0.1,0.3,0.4,0.4,0.7,0.3l0.9-0.4
  		C11.3,14.2,11.5,13.9,11.4,13.7z M6.4,9.6c-0.9-0.9-0.9-2.3,0-3.2s2.3-0.9,3.2,0c0.9,0.9,0.9,2.3,0,3.2C8.7,10.5,7.3,10.5,6.4,9.6z
  		"/>
  </g>

</svg>
