<?xml version="1.0" encoding="utf-8"?>
<?xml-stylesheet type="text/css" href="stylesheet.css" ?>
<!DOCTYPE svg PUBLIC "-//W3C//DTD SVG 1.1//EN" "http://www.w3.org/Graphics/SVG/1.1/DTD/svg11.dtd">

<svg version="1.1"
     xmlns="http://www.w3.org/2000/svg"
     xmlns:xlink="http://www.w3.org/1999/xlink"
     x="0"
     y="0"
     width="16"
     height="16"
     viewBox="0 0 16 16">

  <use xlink:href="defs.svg"/>

  <g id="icon-find">
  	<path d="M9.5,1C6.5,1,4,3.5,4,6.5c0,1.1,0.3,2.1,0.9,3L1.3,13c-0.4,0.4-0.4,1.2,0,1.6C1.6,14.9,1.9,15,2.1,15s0.6-0.1,0.8-0.3
  		l3.5-3.5c0.9,0.6,1.9,0.9,3,0.9c3,0,5.5-2.5,5.5-5.5S12.5,1,9.5,1z M9.5,10C7.6,10,6,8.4,6,6.5S7.6,3,9.5,3S13,4.6,13,6.5
  		S11.4,10,9.5,10z"/>
  </g>

</svg>
