<?xml version="1.0" encoding="utf-8"?>
<?xml-stylesheet type="text/css" href="stylesheet.css" ?>
<!DOCTYPE svg PUBLIC "-//W3C//DTD SVG 1.1//EN" "http://www.w3.org/Graphics/SVG/1.1/DTD/svg11.dtd">

<svg version="1.1"
     xmlns="http://www.w3.org/2000/svg"
     xmlns:xlink="http://www.w3.org/1999/xlink"
     x="0"
     y="0"
     width="16"
     height="16"
     viewBox="0 0 16 16">

  <use xlink:href="defs.svg"/>

  <g id="icon-edit-paste">
  	<path d="M11.5,15h-7C3.7,15,3,14.3,3,13.5v-9C3,3.7,3.7,3,4.5,3H6c0,0,0-2,2-2s2,2,2,2h1.5C12.3,3,13,3.7,13,4.5v9
  		C13,14.3,12.3,15,11.5,15z M10.7,4L9.6,3.5c0,0,0-1.5-1.6-1.5S6.4,3.5,6.4,3.5L5.3,4L4.8,5h2.5h3.2h0.8L10.7,4z M10.8,5.7H6.1
  		l-3,1.7l2.8,4.9l6.6-3.8L10.8,5.7z"/>
  </g>

</svg>
