<?xml version="1.0" encoding="utf-8"?>
<?xml-stylesheet type="text/css" href="stylesheet.css" ?>
<!DOCTYPE svg PUBLIC "-//W3C//DTD SVG 1.1//EN" "http://www.w3.org/Graphics/SVG/1.1/DTD/svg11.dtd">

<svg version="1.1"
     xmlns="http://www.w3.org/2000/svg"
     xmlns:xlink="http://www.w3.org/1999/xlink"
     x="0"
     y="0"
     width="16"
     height="16"
     viewBox="0 0 16 16">

  <use xlink:href="defs.svg"/>

  <g id="icon-menu">
  	<path d="M14.5,10h-13C0.7,10,0,9.3,0,8.5S0.7,7,1.5,7h13C15.3,7,16,7.7,16,8.5S15.3,10,14.5,10z M14.5,5h-13C0.7,5,0,4.3,0,3.5
  		S0.7,2,1.5,2h13C15.3,2,16,2.7,16,3.5S15.3,5,14.5,5z M1.5,12h13c0.8,0,1.5,0.7,1.5,1.5S15.3,15,14.5,15h-13C0.7,15,0,14.3,0,13.5
  		S0.7,12,1.5,12z"/>
  </g>

</svg>
