<?xml version="1.0" encoding="utf-8"?>
<?xml-stylesheet type="text/css" href="stylesheet.css" ?>
<!DOCTYPE svg PUBLIC "-//W3C//DTD SVG 1.1//EN" "http://www.w3.org/Graphics/SVG/1.1/DTD/svg11.dtd">

<svg version="1.1"
     xmlns="http://www.w3.org/2000/svg"
     xmlns:xlink="http://www.w3.org/1999/xlink"
     x="0"
     y="0"
     width="16"
     height="16"
     viewBox="0 0 16 16">

  <use xlink:href="defs.svg"/>

  <g id="icon-sync">
  	<path d="M15,8.8c-0.1,0.6-0.2,1.2-0.4,1.7c-0.4,1.3-1.2,2.5-2.5,3.3c0.4,0.4,1.3,0.9,1.3,0.9s-2,0.3-4.1,0.3l-0.1-0.1V15
  		c-1,0-2-0.3-3-0.6c0.7-0.6,1.2-1.3,1.6-2.1c0.6-1.2,0.6-3,0.6-3s0.9,1.5,1.4,2.1c1.2-0.6,2-1.8,2.1-3c0.1-0.9-0.2-1.7-0.6-2.3
  		c-0.4-0.7-1-1.1-1.7-1.4c0.2-0.4,0.5-0.9,0.8-1.3c0.4-0.6,0.9-1,1.3-1.2C13.8,3.3,15.3,5.9,15,8.8z M8,6.8c0,0-1.1-1.5-1.6-2
  		C5,5.5,4.2,6.8,4.2,8.2c0.1,1.5,1.1,2.7,2.4,3.3c-0.3,0.5-0.6,1-1,1.4c-0.4,0.5-0.9,0.8-1.2,1.1c-2.3-1.4-3.7-4-3.3-6.8
  		c0.1-0.7,0.3-1.4,0.5-2c0.4-1.1,1.1-2,2.1-2.7C3.8,2.4,3.9,2.4,4,2.3C3.6,1.9,2.4,1.5,2.4,1.5s2.5-0.8,6.8-0.3C7.9,3.1,8,6.8,8,6.8
  		z"/>
  </g>

</svg>
