<?xml version="1.0" encoding="utf-8"?>
<?xml-stylesheet type="text/css" href="stylesheet.css" ?>
<!DOCTYPE svg PUBLIC "-//W3C//DTD SVG 1.1//EN" "http://www.w3.org/Graphics/SVG/1.1/DTD/svg11.dtd">

<svg version="1.1"
     xmlns="http://www.w3.org/2000/svg"
     xmlns:xlink="http://www.w3.org/1999/xlink"
     x="0"
     y="0"
     width="16"
     height="16"
     viewBox="0 0 16 16">

  <use xlink:href="defs.svg"/>

  <g id="icon-developer">
  	<path d="M12.2,5.5L14.8,3c0.3,0.6,0.5,1.2,0.5,1.9c0,2.2-1.8,4-4.1,4c-0.5,0-1-0.1-1.4-0.3l-6,5.9c-0.6,0.6-1.7,0.6-2.3,0
  		s-0.6-1.6,0-2.3l5.9-5.9c-0.2-0.5-0.3-1-0.3-1.6c0-2.2,1.8-4,4.1-4c0.7,0,1.3,0.2,1.9,0.5l-2.5,2.5c-0.2,0.2-0.7,1,0,1.7
  		C11.2,6.2,12,5.6,12.2,5.5z M2.6,12.6c-0.5,0-0.9,0.4-0.9,0.9s0.4,0.9,0.9,0.9s0.9-0.4,0.9-0.9S3.1,12.6,2.6,12.6z"/>
  </g>

</svg>
