<?xml version="1.0" encoding="utf-8"?>
<?xml-stylesheet type="text/css" href="stylesheet.css" ?>
<!DOCTYPE svg PUBLIC "-//W3C//DTD SVG 1.1//EN" "http://www.w3.org/Graphics/SVG/1.1/DTD/svg11.dtd">

<svg version="1.1"
     xmlns="http://www.w3.org/2000/svg"
     xmlns:xlink="http://www.w3.org/1999/xlink"
     x="0"
     y="0"
     width="16"
     height="16"
     viewBox="0 0 16 16">

  <use xlink:href="defs.svg"/>

  <g id="icon-addons">
  	<path class="icon-toolbar" d="M11,16c0.5,0,1-0.5,1-1v-4c0,0,0.2-0.8,0.8-0.8s0.6,0.8,1.8,0.8c0.6,0,1.5-0.2,1.5-2s-0.9-2-1.5-2c-1.1,0-1.2,0.8-1.8,0.8 S12,7,12,7V5c0-0.6-0.4-1-1-1H8c0,0-0.8-0.1-0.8-0.8S8,2.6,8,1.5C8,0.9,7.8,0,6,0S4,0.9,4,1.5c0,1.1,0.8,1.2,0.8,1.8S4,4,4,4H1 C0.4,4,0,4.4,0,5v2.5C0,7.5-0.1,9,1.1,9C1.9,9,2,8,3,8c0.5,0,1,0.5,1,1.6c0,1-0.5,1.6-1,1.6c-1,0-1.1-1-1.9-1 C-0.1,10,0,11.5,0,11.5V15c0,0.6,0.4,1,1,1h3.9c0,0,1.5,0.1,1.5-1.1c0-0.8-1-0.9-1-1.9c0-0.5,0.7-1.2,1.8-1.2s1.9,0.7,1.9,1.2 c0,1-1,1.1-1,1.9c0,1.2,1.5,1.1,1.5,1.1H11z"/>
  </g>

</svg>
