<?xml version="1.0" encoding="utf-8"?>
<?xml-stylesheet type="text/css" href="stylesheet.css" ?>
<!DOCTYPE svg PUBLIC "-//W3C//DTD SVG 1.1//EN" "http://www.w3.org/Graphics/SVG/1.1/DTD/svg11.dtd">

<svg version="1.1"
     xmlns="http://www.w3.org/2000/svg"
     xmlns:xlink="http://www.w3.org/1999/xlink"
     x="0"
     y="0"
     width="16"
     height="16"
     viewBox="0 0 16 16">

  <use xlink:href="defs.svg"/>

  <g id="icon-open">
  	<path d="M1,5V2c0-0.6,0.5-1,1-1h4c0.5,0,1.2,0.9,1.2,0.9L8,3h6.5C14.8,3,15,3.2,15,3.5V5H1z M0.6,6h14.8c0.2,0,0.3,0.2,0.3,0.3 c0,0-0.4,2.1-0.5,4.2S15,14.6,15,14.6c0,0.2-0.2,0.4-0.4,0.4H1.3C1.1,15,1,14.8,1,14.6c0,0,0.1-1.6-0.2-4.1 C0.6,8.4,0.3,6.3,0.3,6.3C0.3,6.2,0.5,6,0.6,6z"/>
  </g>

</svg>
