<?xml version="1.0" encoding="utf-8"?>
<?xml-stylesheet type="text/css" href="stylesheet.css" ?>
<!DOCTYPE svg PUBLIC "-//W3C//DTD SVG 1.1//EN" "http://www.w3.org/Graphics/SVG/1.1/DTD/svg11.dtd">

<svg version="1.1"
     xmlns="http://www.w3.org/2000/svg"
     xmlns:xlink="http://www.w3.org/1999/xlink"
     x="0"
     y="0"
     width="16"
     height="16"
     viewBox="0 0 16 16">

  <use xlink:href="defs.svg"/>

  <g id="icon-forward">
  	<path class="icon-toolbar" d="M2,9V7c0-0.6,0.4-1,1-1h4.8L6,4.2C5.5,3.7,5.4,3,5.8,2.6l0.8-0.9C7,1.3,7.7,1.4,8.2,1.9l5.3,5.4c0.1,0.1,0.4,0.4,0.4,0.7 s-0.3,0.7-0.4,0.7l-5.4,5.4c-0.5,0.5-1.2,0.6-1.6,0.2l-0.8-0.9c-0.4-0.4-0.3-1.1,0.2-1.6L7.8,10H3C2.4,10,2,9.6,2,9z"/>
  </g>

</svg>
