<?xml version="1.0" encoding="utf-8"?>
<?xml-stylesheet type="text/css" href="stylesheet.css" ?>
<!DOCTYPE svg PUBLIC "-//W3C//DTD SVG 1.1//EN" "http://www.w3.org/Graphics/SVG/1.1/DTD/svg11.dtd">

<svg version="1.1"
     xmlns="http://www.w3.org/2000/svg"
     xmlns:xlink="http://www.w3.org/1999/xlink"
     x="0"
     y="0"
     width="16"
     height="16"
     viewBox="0 0 16 16">

  <use xlink:href="defs.svg"/>

  <g id="icon-feed">
  	<path d="M14.3,15h-1.5c-0.4,0-0.8-0.3-0.8-0.8c0,0,0.3-3.6-3.2-7.2c-2.5-3-7-3.2-7-3.2C1.3,3.8,1,3.5,1,3.1V1.7C1,1.3,1.3,1,1.8,1
  		c0,0,6.3,0.4,9.6,4.5c3.3,3.1,3.6,8.8,3.6,8.8C15,14.7,14.8,15,14.3,15z M1.8,6c0,0,3.7,0.5,5.8,2.4c2.1,2,2.5,5.9,2.5,5.9
  		c0,0.4-0.1,0.8-0.5,0.8H8.1c-0.4,0-0.6-0.3-0.6-0.8c0,0,0.1-2.4-1.8-4.2C4.2,8.8,1.8,8.7,1.8,8.7C1.3,8.7,1,8.4,1,8V6.7
  		C1,6.3,1.3,6,1.8,6z M3,11c1.1,0,2,0.9,2,2s-0.9,2-2,2s-2-0.9-2-2S1.9,11,3,11z"/>
  </g>

</svg>
