<?xml version="1.0" encoding="utf-8"?>
<?xml-stylesheet type="text/css" href="stylesheet.css" ?>
<!DOCTYPE svg PUBLIC "-//W3C//DTD SVG 1.1//EN" "http://www.w3.org/Graphics/SVG/1.1/DTD/svg11.dtd">

<svg version="1.1"
     xmlns="http://www.w3.org/2000/svg"
     xmlns:xlink="http://www.w3.org/1999/xlink"
     x="0"
     y="0"
     width="16"
     height="16"
     viewBox="0 0 16 16">

  <use xlink:href="defs.svg"/>

  <g id="icon-print">
  	<path d="M15,13h-2l1,2H2l1-2H1c-0.6,0-1-0.4-1-1V7c0-0.6,0.4-1,1-1h1V4c0-0.6,0.4-1,1-1V2c0-0.6,0.4-1,1-1h8c0.6,0,1,0.4,1,1v1
  		c0.6,0,1,0.4,1,1v2h1c0.6,0,1,0.4,1,1v5C16,12.6,15.6,13,15,13z M3,13l0.5-1H3V13z M3.5,8H3H2.5C2.2,8,2,8.2,2,8.5S2.2,9,2.5,9h1
  		C3.8,9,4,8.8,4,8.5S3.8,8,3.5,8z M12,3c0-0.6-0.4-1-1-1H5C4.4,2,4,2.4,4,3v3c0,0.6,0.4,1,1,1h6c0.6,0,1-0.4,1-1V3z M11.1,12H4.9
  		L4,14h8L11.1,12z M13,12h-0.5l0.5,1V12z"/>
  </g>

</svg>
