<?xml version="1.0" encoding="utf-8"?>
<?xml-stylesheet type="text/css" href="stylesheet.css" ?>
<!DOCTYPE svg PUBLIC "-//W3C//DTD SVG 1.1//EN" "http://www.w3.org/Graphics/SVG/1.1/DTD/svg11.dtd">

<svg version="1.1"
     xmlns="http://www.w3.org/2000/svg"
     xmlns:xlink="http://www.w3.org/1999/xlink"
     x="0"
     y="0"
     width="16"
     height="16"
     viewBox="0 0 16 16">

  <use xlink:href="defs.svg"/>

  <g id="icon-tabGroups">
  	<path d="M14,15H8c-0.6,0-1-0.4-1-1V9c0-0.6,0.4-1,1-1h6c0.6,0,1,0.4,1,1v5C15,14.6,14.6,15,14,15z M14,7h-2c-0.6,0-1-0.4-1-1V2
  		c0-0.6,0.4-1,1-1h2c0.6,0,1,0.4,1,1v4C15,6.6,14.6,7,14,7z M9,7H2C1.4,7,1,6.6,1,6V2c0-0.6,0.4-1,1-1h7c0.6,0,1,0.4,1,1v4
  		C10,6.6,9.6,7,9,7z M2,8h3c0.6,0,1,0.4,1,1v5c0,0.6-0.4,1-1,1H2c-0.6,0-1-0.4-1-1V9C1,8.4,1.4,8,2,8z"/>
  </g>

</svg>
