<?xml version="1.0" encoding="utf-8"?>
<!DOCTYPE svg PUBLIC "-//W3C//DTD SVG 1.1//EN" "http://www.w3.org/Graphics/SVG/1.1/DTD/svg11.dtd">

<svg version="1.1"
     xmlns="http://www.w3.org/2000/svg"
     xmlns:xlink="http://www.w3.org/1999/xlink"
     width="24"
     height="24"
     viewBox="0 0 24 24">
       
  <path fill="#a6a6a6" d="M16.4,14.2c0,0-0.1,0-0.1,0L15,16.1c-0.1,0.1-0.2,0.1-0.3,0.1 c-0.3,0-0.5-0.2-0.5-0.2l-0.9-0.9c-0.1-0.1-0.3-0.2-0.4-0.2c-0.1,0-0.2,0.1-0.3,0.2l-1.8,2l-1.8,0l0,1.8L8.9,19L8,19l0,0.8L7.8,20 L7,20L7,20.6l0,0.3l0,0l0,0L7,21l0,0l0,0L5,21.1l0,1.7l0,0l0,0L4.9,23l0,0l0,0l-3.5,0c-0.3,0-0.2,0-0.3-0.2l0-2.5l0.1-0.1l0,0 L9,11.5c0,0,0.1-0.1,0.1-0.1C9.1,11.3,9,11.1,9,11l-0.8-0.7C8,10.1,8,9.8,8.1,9.7l1.7-1.3c0,0,0,0,0,0c0-0.2-0.1-0.5-0.1-0.7 c0-3.7,3-6.6,6.6-6.6C20,1,23,4,23,7.6S20,14.2,16.4,14.2z M18.5,4C17.7,4,17,4.7,17,5.5C17,6.3,17.7,7,18.5,7C19.3,7,20,6.3,20,5.5 C20,4.7,19.3,4,18.5,4z"/>
</svg>
