<?xml version="1.0" encoding="utf-8"?>
<!DOCTYPE svg PUBLIC "-//W3C//DTD SVG 1.1//EN" "http://www.w3.org/Graphics/SVG/1.1/DTD/svg11.dtd">

<svg version="1.1"
     xmlns="http://www.w3.org/2000/svg"
     xmlns:xlink="http://www.w3.org/1999/xlink"
     width="24"
     height="24"
     viewBox="0 0 24 24">

  <style>
    .style-reader-UI.active {
      fill: #ff9500;
    }
  </style>
       
  <path id="icon-reader-style" class="style-reader-UI active" d="M12.8,18.7c0-0.1-0.1-0.2-0.1-0.3L7.7,4H6.1L1.2,18.7L0,19v1h4.2v-1L3,18.9c0,0-0.1,0-0.1,0 c0,0-0.1-0.1-0.1-0.1c0,0-0.1-0.1-0.1-0.2c0-0.1,0-0.1,0-0.1l1.4-4.2H9l1.5,4.3c0,0.1,0,0.1,0,0.2c0,0.1-0.1,0.2-0.2,0.2L9,19v1h5 v-1l-0.9-0.2C12.9,18.8,12.8,18.7,12.8,18.7z M4.5,13.1L6.5,7l2.1,6.1H4.5z M22.9,18.9c-0.1,0-0.2-0.1-0.3-0.2 c-0.1-0.1-0.1-0.2-0.1-0.4v-6.8c0-0.5-0.1-1-0.2-1.4C22.2,9.7,22,9.3,21.8,9c-0.3-0.3-0.6-0.6-1.1-0.8C20.3,8.1,19.7,8,19,8 C18.5,8,18,8,17.4,8.2c-0.5,0.1-1,0.3-1.5,0.5c-0.4,0.2-0.8,0.5-1.1,0.9c-0.3,0.4-0.4,0.8-0.4,1.3c0,0.1,0,0.3,0.1,0.4 c0,0.1,0.1,0.2,0.2,0.2c0.1,0.1,0.2,0.1,0.3,0.1c0.1,0,0.2,0,0.3,0h1.6V9.5c0.1,0,0.3-0.1,0.6-0.2c0.3-0.1,0.6-0.1,1-0.1 c0.7,0,1.2,0.2,1.5,0.6c0.3,0.4,0.5,1,0.5,1.8v1c-1,0.2-1.8,0.5-2.5,0.7c-0.7,0.2-1.3,0.4-1.8,0.7c-0.5,0.2-0.9,0.5-1.2,0.7 c-0.3,0.2-0.5,0.5-0.7,0.7c-0.2,0.3-0.3,0.5-0.3,0.8C14,16.4,14,16.7,14,17c0,0.5,0.1,1,0.2,1.4c0.1,0.4,0.3,0.7,0.6,1 c0.3,0.3,0.6,0.5,0.9,0.6c0.3,0.1,0.7,0.2,1.1,0.2c0.2,0,0.4,0,0.6-0.1c0.2,0,0.4-0.1,0.6-0.2c0.2-0.1,0.4-0.2,0.6-0.3 c0.2-0.1,0.4-0.2,0.6-0.3c0.4-0.3,0.8-0.5,1.2-0.9l0.3,1.4H24V19L22.9,18.9z M20.5,17.6c-0.3,0.2-0.6,0.4-0.9,0.6 c-0.3,0.1-0.6,0.3-0.9,0.4c-0.3,0.1-0.6,0.2-0.9,0.2c-0.3,0-0.5-0.1-0.7-0.2c-0.2-0.1-0.4-0.3-0.5-0.5s-0.2-0.4-0.3-0.6 c-0.1-0.2-0.1-0.5-0.1-0.7c0-0.3,0-0.6,0.1-0.9c0.1-0.3,0.3-0.6,0.6-0.8c0.3-0.3,0.7-0.5,1.3-0.8c0.6-0.3,1.4-0.5,2.3-0.8V17.6z" />

</svg>


